<?xml version="1.0" encoding="utf-8"?>
<!-- Generator: Adobe Illustrator 16.0.3, SVG Export Plug-In . SVG Version: 6.00 Build 0)  -->
<svg version="1.2" baseProfile="tiny" id="Layer_1" xmlns="http://www.w3.org/2000/svg" xmlns:xlink="http://www.w3.org/1999/xlink"
	 x="0px" y="0px" width="11px" height="11px" viewBox="-129.203 4.948 11 11" xml:space="preserve">
<g>
	<path fill="#FFFFFF" d="M-120.37,10.155C-120.369,10.163-120.381,10.041-120.37,10.155L-120.37,10.155z"/>
	<path fill="#FFFFFF" d="M-120.581,9.043c0.018-0.033-0.013-0.19-0.033-0.224c-0.027-0.115-0.179,0.045-0.245,0.06
		c-0.151,0.012-0.286,0.058-0.435,0.085c-0.166,0.03-0.347,0.005-0.513,0.029c-0.154,0.021-0.295,0.051-0.449,0.057
		c-0.58,0.022-1.19,0.019-1.77,0.037c-0.337,0.011-0.662-0.009-0.997-0.022C-125.151,9.059-126.445,9-126.517,9
		c-0.037,0-0.252-0.057-0.276-0.032c-0.099,0.106-0.064,0.322-0.068,0.449c-0.014,0.445-0.033,0.876,0.01,1.319
		c0.027,0.285,0.08,0.557,0.15,0.834c0.056,0.224,0.195,0.4,0.278,0.608c0.106,0.263,0.377,0.479,0.557,0.688
		c0.127,0.149,0.321,0.333,0.499,0.422c0.172,0.105,0.458,0.279,0.663,0.279c0.131,0,0.248,0.098,0.381,0.111
		c0.129,0.014,0.25,0.027,0.381,0.017c0.548-0.042,1.067-0.168,1.57-0.387c0.474-0.197,0.852-0.585,1.123-1.012
		c0.25-0.389,0.51-0.891,0.507-1.367c-0.006-0.356,0.123-0.757,0.17-1.109c0.026-0.196,0.041-0.417,0.019-0.613
		C-120.562,9.132-120.621,9.121-120.581,9.043z"/>
	<path fill="#FFFFFF" d="M-119.849,9.61c-0.129-0.045-0.213-0.043-0.324-0.018c-0.062,0.014-0.133,0.01-0.143,0.094
		c-0.018,0.139-0.068,0.327-0.054,0.469c0.006,0.048-0.031,0.135,0.007,0.171c0.053,0.052,0.297,0.067,0.374,0.067
		c0.254,0,0.521-0.272,0.457-0.552C-119.56,9.721-119.736,9.649-119.849,9.61z"/>
	<path fill="#FFFFFF" d="M-123.702,4.948c-3.038,0-5.5,2.462-5.5,5.5c0,3.036,2.463,5.5,5.5,5.5c3.037,0,5.5-2.464,5.5-5.5
		C-118.203,7.41-120.666,4.948-123.702,4.948z M-119.718,10.527c-0.156,0.064-0.277,0.06-0.442,0.085
		c-0.068,0.01-0.246-0.056-0.285,0.01c-0.143,0.239-0.032,0.582-0.193,0.813c-0.05,0.074-0.073,0.222-0.104,0.304
		c-0.053,0.137-0.121,0.268-0.183,0.4c-0.459,0.983-1.547,1.61-2.594,1.714c-0.593,0.058-1.117,0.02-1.671-0.233
		c-0.528-0.243-1.011-0.708-1.331-1.185c-0.316-0.472-0.422-1.023-0.562-1.562c-0.075-0.293-0.057-0.657-0.015-0.955
		c0.042-0.29,0.033-0.598,0.038-0.891c0.003-0.118-0.057-0.272-0.008-0.386c0.035-0.08,0.201-0.093,0.275-0.113
		c0.241-0.067,0.431-0.101,0.679-0.134c0.551-0.079,1.218-0.083,1.775-0.094c0.521-0.012,1.05,0.015,1.572-0.009
		c0.262-0.018,0.545,0.005,0.81,0.003c0.07-0.001,0.377,0.01,0.413,0.086c0.034,0.072,0.036,0.057,0.015,0.121
		c-0.125,0.034-0.274,0.035-0.404,0.028c-0.193-0.011-0.388-0.015-0.581-0.015c-0.478,0-0.953-0.019-1.432-0.013
		c-0.42,0.006-0.856,0.006-1.312,0.013c-0.186,0.003-0.364,0.042-0.55,0.05c-0.077,0.004-0.65,0.02-0.741,0.115
		c0.012,0.104,0.914,0.137,1.312,0.163c0.542,0.036,1.168,0.056,1.711,0.025c0.253-0.015,0.502-0.011,0.756-0.021
		c0.208-0.009,0.434-0.001,0.641-0.007c0.243-0.007,0.639-0.082,0.878-0.09c0.055-0.002,0.494-0.064,0.471-0.121
		c-0.044-0.108-0.625-0.054-0.627-0.143c-0.006-0.239,0.259-0.148,0.4-0.121c0.397,0.077,0.423,0.035,0.502,0.148
		c0.067,0.098,0.11,0.164,0.124,0.285c0.005,0.052,0.021,0.521,0.079,0.521c0.139,0,0.29-0.067,0.431-0.019
		c0.173,0.034,0.365,0.103,0.489,0.227c0.114,0.114,0.17,0.171,0.164,0.435C-119.304,10.413-119.573,10.465-119.718,10.527z"/>
</g>
</svg>
